<svg width="64" height="64" viewBox="0 0 64 64" fill="none" xmlns="http://www.w3.org/2000/svg">
<path d="M10.6667 45.3333V37.3333C10.6667 35.9188 11.2287 34.5623 12.2288 33.5621C13.229 32.5619 14.5856 32 16.0001 32H48.0001C49.4146 32 50.7711 32.5619 51.7713 33.5621C52.7715 34.5623 53.3334 35.9188 53.3334 37.3333V45.3333" stroke="#1C4096" stroke-width="2" stroke-miterlimit="10"/>
<path d="M32 21.3333V45.3333" stroke="#E9C000" stroke-width="2" stroke-miterlimit="10"/>
<path d="M37.3333 21.3333H26.6667C25.9594 21.3333 25.2811 21.0524 24.781 20.5523C24.281 20.0522 24 19.3739 24 18.6667V10.6667C24 9.95942 24.281 9.28115 24.781 8.78105C25.2811 8.28095 25.9594 8 26.6667 8H37.3333C38.0406 8 38.7189 8.28095 39.219 8.78105C39.719 9.28115 40 9.95942 40 10.6667V18.6667C40 19.3739 39.719 20.0522 39.219 20.5523C38.7189 21.0524 38.0406 21.3333 37.3333 21.3333Z" stroke="#1C4096" stroke-width="2" stroke-miterlimit="10"/>
<path d="M35.9999 57.3333H27.9999C27.2927 57.3333 26.6144 57.0524 26.1143 56.5523C25.6142 56.0522 25.3333 55.3739 25.3333 54.6666V48C25.3333 47.2927 25.6142 46.6145 26.1143 46.1144C26.6144 45.6143 27.2927 45.3333 27.9999 45.3333H35.9999C36.7072 45.3333 37.3854 45.6143 37.8855 46.1144C38.3856 46.6145 38.6666 47.2927 38.6666 48V54.6666C38.6666 55.3739 38.3856 56.0522 37.8855 56.5523C37.3854 57.0524 36.7072 57.3333 35.9999 57.3333Z" stroke="#E9C000" stroke-width="2" stroke-miterlimit="10"/>
<path d="M57.3334 57.3333H49.3334C48.6262 57.3333 47.9479 57.0524 47.4478 56.5523C46.9477 56.0522 46.6667 55.3739 46.6667 54.6666V48C46.6667 47.2927 46.9477 46.6145 47.4478 46.1144C47.9479 45.6143 48.6262 45.3333 49.3334 45.3333H57.3334C58.0407 45.3333 58.7189 45.6143 59.219 46.1144C59.7191 46.6145 60.0001 47.2927 60.0001 48V54.6666C60.0001 55.3739 59.7191 56.0522 59.219 56.5523C58.7189 57.0524 58.0407 57.3333 57.3334 57.3333Z" stroke="#1C4096" stroke-width="2" stroke-miterlimit="10"/>
<path d="M14.6667 57.3333H6.66667C5.95942 57.3333 5.28115 57.0524 4.78105 56.5523C4.28095 56.0522 4 55.3739 4 54.6666V48C4 47.2927 4.28095 46.6145 4.78105 46.1144C5.28115 45.6143 5.95942 45.3333 6.66667 45.3333H14.6667C15.3739 45.3333 16.0522 45.6143 16.5523 46.1144C17.0524 46.6145 17.3333 47.2927 17.3333 48V54.6666C17.3333 55.3739 17.0524 56.0522 16.5523 56.5523C16.0522 57.0524 15.3739 57.3333 14.6667 57.3333Z" stroke="#1C4096" stroke-width="2" stroke-miterlimit="10"/>
</svg>
