<svg width="64" height="64" viewBox="0 0 64 64" fill="none" xmlns="http://www.w3.org/2000/svg">
<path d="M20.0001 12H17.3334C16.6262 12 15.9479 12.281 15.4478 12.781C14.9477 13.2811 14.6667 13.9594 14.6667 14.6667V46.6667C14.6667 47.3739 14.9477 48.0522 15.4478 48.5523C15.9479 49.0524 16.6262 49.3333 17.3334 49.3333H49.3334C50.0407 49.3333 50.7189 49.0524 51.219 48.5523C51.7191 48.0522 52.0001 47.3739 52.0001 46.6667V44" stroke="#1C4096" stroke-width="2" stroke-miterlimit="10" stroke-linecap="round" stroke-linejoin="round"/>
<path d="M14.6666 17.3334H11.9999C11.2927 17.3334 10.6144 17.6143 10.1143 18.1144C9.6142 18.6145 9.33325 19.2928 9.33325 20V52C9.33325 52.7073 9.6142 53.3856 10.1143 53.8857C10.6144 54.3858 11.2927 54.6667 11.9999 54.6667H43.9999C44.7072 54.6667 45.3854 54.3858 45.8855 53.8857C46.3856 53.3856 46.6666 52.7073 46.6666 52V49.3334" stroke="#1C4096" stroke-width="2" stroke-miterlimit="10" stroke-linecap="round" stroke-linejoin="round"/>
<path d="M9.33333 22.6667H6.66667C5.95942 22.6667 5.28115 22.9476 4.78105 23.4477C4.28095 23.9478 4 24.6261 4 25.3334V57.3334C4 58.0406 4.28095 58.7189 4.78105 59.219C5.28115 59.7191 5.95942 60 6.66667 60H38.6667C39.3739 60 40.0522 59.7191 40.5523 59.219C41.0524 58.7189 41.3333 58.0406 41.3333 57.3334V54.6667" stroke="#1C4096" stroke-width="2" stroke-miterlimit="10" stroke-linecap="round" stroke-linejoin="round"/>
<path d="M22.6667 6.66669H54.6667C55.3739 6.66669 56.0522 6.94764 56.5523 7.44774C57.0524 7.94783 57.3333 8.62611 57.3333 9.33335V41.3334C57.3333 42.0406 57.0524 42.7189 56.5523 43.219C56.0522 43.7191 55.3739 44 54.6667 44H22.6667C21.9594 44 21.2811 43.7191 20.781 43.219C20.281 42.7189 20 42.0406 20 41.3334V9.33335C20 8.62611 20.281 7.94783 20.781 7.44774C21.2811 6.94764 21.9594 6.66669 22.6667 6.66669V6.66669Z" stroke="#E9C000" stroke-width="2" stroke-miterlimit="10" stroke-linecap="round" stroke-linejoin="round"/>
</svg>
