<svg width="64" height="64" viewBox="0 0 64 64" fill="none" xmlns="http://www.w3.org/2000/svg">
<path d="M52 58.6667C55.6819 58.6667 58.6667 55.6819 58.6667 52C58.6667 48.3181 55.6819 45.3334 52 45.3334C48.3181 45.3334 45.3334 48.3181 45.3334 52C45.3334 55.6819 48.3181 58.6667 52 58.6667Z" stroke="#1C4096" stroke-width="2" stroke-miterlimit="10"/>
<path d="M52 33.3333C55.6819 33.3333 58.6667 30.3486 58.6667 26.6667C58.6667 22.9848 55.6819 20 52 20C48.3181 20 45.3334 22.9848 45.3334 26.6667C45.3334 30.3486 48.3181 33.3333 52 33.3333Z" stroke="#1C4096" stroke-width="2" stroke-miterlimit="10"/>
<path d="M10.6667 17.3333C14.3486 17.3333 17.3333 14.3486 17.3333 10.6667C17.3333 6.98477 14.3486 4 10.6667 4C6.98477 4 4 6.98477 4 10.6667C4 14.3486 6.98477 17.3333 10.6667 17.3333Z" stroke="#E9C000" stroke-width="2" stroke-miterlimit="10"/>
<path d="M17.3334 10.6666H26.6667C28.0812 10.6666 29.4377 11.2285 30.4379 12.2287C31.4381 13.2289 32 14.5855 32 16V46.6666C32 48.0811 32.5619 49.4377 33.5621 50.4379C34.5623 51.4381 35.9189 52 37.3334 52H45.3334" stroke="#1C4096" stroke-width="2" stroke-miterlimit="10"/>
<path d="M45.3333 26.6667H36C34.9391 26.6667 33.9217 26.2453 33.1716 25.4951C32.4214 24.745 32 23.7276 32 22.6667V17.3334" stroke="#1C4096" stroke-width="2" stroke-miterlimit="10"/>
</svg>
