<svg width="64" height="64" viewBox="0 0 64 64" fill="none" xmlns="http://www.w3.org/2000/svg">
<path d="M45.0147 48.3435C44.9578 47.7867 44.944 47.2264 44.9734 46.6675H48C49.4734 46.6675 50.6667 45.6635 50.6667 44.2235V44.0822C50.6667 42.6422 49.4734 41.3342 48 41.3342H46.72C49.2667 36.0008 53.16 25.8502 48.296 16.4728C42.572 5.43816 36.3894 6.55283 36.3894 6.55283C36.3894 6.55283 32.6107 2.39549 29.52 2.59549C29.52 2.59549 29.52 7.53949 29.0627 8.24083C29.0627 8.24083 23.5667 8.15416 21.7347 13.0702C19.9027 17.9862 15.668 20.7008 13.492 22.7075C11.3174 24.7142 12.004 26.7235 13.492 27.9275C14.98 29.1315 16.812 30.1355 21.7347 27.5275C26.6574 24.9195 30.78 27.9302 35.4734 23.1142C35.4734 23.1142 31.2374 27.8075 26.3134 30.5168C21.6667 33.0742 19.1934 38.6675 19.024 41.3342H17.3334C15.86 41.3342 14.6667 42.7235 14.6667 44.1635V44.1115C14.6667 45.5515 15.86 46.6675 17.3334 46.6675H19.1334C19.108 47.3262 19.0587 47.9848 18.9734 48.6435C18.5147 52.1102 15.4947 54.6675 12 54.6675C10.6374 54.6675 9.33337 55.8955 9.33337 57.2275V61.3342H56V57.2275C56 55.8955 54.696 54.6675 53.3334 54.6675H52.0254C48.4147 54.6675 45.3547 51.9382 45.0147 48.3435V48.3435Z" stroke="#1C4096" stroke-width="2" stroke-miterlimit="10" stroke-linecap="round" stroke-linejoin="round"/>
<path d="M41.3334 21.3333C41.3334 21.3333 49.6841 24.5066 38.6667 41.3333" stroke="#E9C000" stroke-width="2" stroke-miterlimit="10" stroke-linecap="round" stroke-linejoin="round"/>
<path d="M14.6702 28C14.5129 27.324 19.3516 26.5946 22.6703 22.6666" stroke="#1C4096" stroke-width="2" stroke-miterlimit="10" stroke-linecap="round" stroke-linejoin="round"/>
</svg>
