<svg width="61" height="62" viewBox="0 0 61 62" fill="none" xmlns="http://www.w3.org/2000/svg">
<path d="M30.3334 41C36.2244 41 41 36.2243 41 30.3333C41 24.4423 36.2244 19.6666 30.3334 19.6666C24.4423 19.6666 19.6667 24.4423 19.6667 30.3333C19.6667 36.2243 24.4423 41 30.3334 41Z" stroke="#E9C000" stroke-width="2" stroke-miterlimit="10" stroke-linecap="round"/>
<path d="M38.3333 22.3334L50.3333 10.3334" stroke="#1C4096" stroke-width="2" stroke-miterlimit="10" stroke-linecap="round"/>
<path d="M54.3333 11.6667C57.2789 11.6667 59.6667 9.27885 59.6667 6.33333C59.6667 3.38781 57.2789 1 54.3333 1C51.3878 1 49 3.38781 49 6.33333C49 9.27885 51.3878 11.6667 54.3333 11.6667Z" stroke="#1C4096" stroke-width="2" stroke-miterlimit="10" stroke-linecap="round"/>
<path d="M50.3333 61C54.7516 61 58.3333 57.4183 58.3333 53C58.3333 48.5817 54.7516 45 50.3333 45C45.915 45 42.3333 48.5817 42.3333 53C42.3333 57.4183 45.915 61 50.3333 61Z" stroke="#1C4096" stroke-width="2" stroke-miterlimit="10" stroke-linecap="round"/>
<path d="M6.33333 21C9.27885 21 11.6667 18.6122 11.6667 15.6667C11.6667 12.7212 9.27885 10.3334 6.33333 10.3334C3.38781 10.3334 1 12.7212 1 15.6667C1 18.6122 3.38781 21 6.33333 21Z" stroke="#1C4096" stroke-width="2" stroke-miterlimit="10" stroke-linecap="round"/>
<path d="M11.6666 52.3333C13.5076 52.3333 15 50.8409 15 49C15 47.159 13.5076 45.6666 11.6666 45.6666C9.8257 45.6666 8.33331 47.159 8.33331 49C8.33331 50.8409 9.8257 52.3333 11.6666 52.3333Z" stroke="#1C4096" stroke-width="2" stroke-miterlimit="10" stroke-linecap="round"/>
<path d="M14.3333 46.3334L22.3333 38.3334" stroke="#1C4096" stroke-width="2" stroke-miterlimit="10" stroke-linecap="round"/>
<path d="M21 23.6667L11.6667 18.3334" stroke="#1C4096" stroke-width="2" stroke-miterlimit="10" stroke-linecap="round"/>
<path d="M38.3333 38.3334L45 46.3334" stroke="#1C4096" stroke-width="2" stroke-miterlimit="10" stroke-linecap="round"/>
</svg>
