<svg width="64" height="64" viewBox="0 0 64 64" fill="none" xmlns="http://www.w3.org/2000/svg">
<path d="M22 54L10 42C10 42 35 1 63 1C63 29 22 54 22 54Z" stroke="#1C4096" stroke-width="2" stroke-miterlimit="10" stroke-linejoin="round"/>
<path d="M20 52L17 55L9 47L12 44" stroke="#1C4096" stroke-width="2" stroke-miterlimit="10" stroke-linejoin="round"/>
<path d="M7 50C1 56 1 63 1 63C1 63 8 63 14 57" stroke="#E9C000" stroke-width="2" stroke-miterlimit="10" stroke-linejoin="round"/>
<path d="M46 22C48.2091 22 50 20.2091 50 18C50 15.7909 48.2091 14 46 14C43.7909 14 42 15.7909 42 18C42 20.2091 43.7909 22 46 22Z" stroke="#1C4096" stroke-width="2" stroke-miterlimit="10" stroke-linejoin="round"/>
<path d="M37 31C39.2091 31 41 29.2091 41 27C41 24.7909 39.2091 23 37 23C34.7909 23 33 24.7909 33 27C33 29.2091 34.7909 31 37 31Z" stroke="#1C4096" stroke-width="2" stroke-miterlimit="10" stroke-linejoin="round"/>
<path d="M28 40C30.2091 40 32 38.2091 32 36C32 33.7909 30.2091 32 28 32C25.7909 32 24 33.7909 24 36C24 38.2091 25.7909 40 28 40Z" stroke="#1C4096" stroke-width="2" stroke-miterlimit="10" stroke-linejoin="round"/>
<path d="M54 25L37 63H27L27 55" stroke="#1C4096" stroke-width="2" stroke-miterlimit="10" stroke-linejoin="round"/>
<path d="M39 10L1 27L1 37H9" stroke="#1C4096" stroke-width="2" stroke-miterlimit="10" stroke-linejoin="round"/>
<path d="M61 11C58.8783 11 56.8434 10.1571 55.3431 8.65685C53.8429 7.15656 53 5.12173 53 3" stroke="#1C4096" stroke-width="2" stroke-miterlimit="10" stroke-linejoin="round"/>
</svg>
