<svg width="30" height="30" viewBox="0 0 30 30" fill="none" xmlns="http://www.w3.org/2000/svg">
<path d="M15 30C23.2843 30 30 23.2843 30 15C30 6.71573 23.2843 0 15 0C6.71573 0 0 6.71573 0 15C0 23.2843 6.71573 30 15 30Z" fill="#1C4096"/>
<path d="M23.962 16.2064V22.3907H20.3765V16.6209C20.3765 15.1722 19.8589 14.1828 18.5607 14.1828C17.57 14.1828 16.9815 14.8489 16.7216 15.4938C16.6272 15.7243 16.6029 16.0444 16.6029 16.3677V22.3904H13.0172C13.0172 22.3904 13.0653 12.6183 13.0172 11.6068H16.6031V13.1349C16.5959 13.147 16.5858 13.1587 16.5793 13.1702H16.6031V13.1349C17.0796 12.4017 17.9294 11.3536 19.8345 11.3536C22.1935 11.3536 23.962 12.8948 23.962 16.2064ZM9.26625 6.40869C8.03974 6.40869 7.2373 7.21381 7.2373 8.27161C7.2373 9.30695 8.01648 10.1353 9.21919 10.1353H9.24246C10.493 10.1353 11.2706 9.30695 11.2706 8.27161C11.2468 7.21381 10.493 6.40869 9.26625 6.40869ZM7.45041 22.3907H11.0348V11.6068H7.45041V22.3907Z" fill="white"/>
</svg>
