<svg width="98" height="48" viewBox="0 0 98 48" fill="none" xmlns="http://www.w3.org/2000/svg">
<path d="M0.0205078 38.2356H83.2795" stroke="#1C4096" stroke-miterlimit="10"/>
<path d="M2.41925 46.9926H0V42.7168H2.41925V43.3129H0.697071V44.4847H2.29623V45.0603H0.697071V46.3964H2.41925V46.9926Z" fill="#1C4096"/>
<path d="M8.44697 46.9926H7.64739L6.58128 45.2453L5.49467 46.9926H4.75659L6.17124 44.7725L4.8386 42.7168H5.61768L6.60178 44.3408L7.58588 42.7168H8.34446L7.01182 44.793L8.44697 46.9926Z" fill="#1C4096"/>
<path d="M13.4085 46.9926H10.9893V42.7168H13.4085V43.3129H11.6863V44.4847H13.2855V45.0603H11.6863V46.3964H13.4085V46.9926Z" fill="#1C4096"/>
<path d="M18.1034 43.2512C17.6934 43.2512 17.3859 43.3951 17.1603 43.6829C16.9348 43.9707 16.8118 44.3613 16.8118 44.8546C16.8118 45.3891 16.9143 45.7797 17.1398 46.0469C17.3654 46.3142 17.6729 46.4581 18.1034 46.4581C18.288 46.4581 18.452 46.4375 18.6365 46.3964C18.821 46.3553 18.985 46.3142 19.1695 46.2525V46.8487C18.8415 46.972 18.452 47.0337 18.0214 47.0337C17.4064 47.0337 16.9143 46.8486 16.5863 46.4581C16.2582 46.088 16.0737 45.533 16.0737 44.8341C16.0737 44.3818 16.1557 43.9913 16.3198 43.6624C16.4838 43.3335 16.7093 43.0662 17.0168 42.9018C17.3244 42.7167 17.6934 42.6345 18.1034 42.6345C18.534 42.6345 18.944 42.7167 19.3131 42.9018L19.067 43.4773C18.9235 43.4157 18.78 43.354 18.616 43.2923C18.452 43.2718 18.288 43.2512 18.1034 43.2512Z" fill="#1C4096"/>
<path d="M25.3816 42.7168V45.492C25.3816 45.8003 25.3201 46.0881 25.1766 46.3142C25.0331 46.5404 24.8486 46.7254 24.582 46.8692C24.336 46.9926 24.0285 47.0543 23.6594 47.0543C23.1264 47.0543 22.7163 46.9104 22.4293 46.6226C22.1423 46.3348 21.9783 45.9648 21.9783 45.4714V42.7168H22.6753V45.4303C22.6753 45.7797 22.7573 46.047 22.9214 46.2114C23.0854 46.3759 23.3314 46.4581 23.6799 46.4581C24.336 46.4581 24.664 46.1087 24.664 45.4097V42.7168H25.3816Z" fill="#1C4096"/>
<path d="M29.9125 46.9926H29.2155V43.3129H27.9648V42.7168H31.1837V43.3129H29.9125V46.9926Z" fill="#1C4096"/>
<path d="M33.7874 46.9926V42.7168H34.4844V46.9926H33.7874Z" fill="#1C4096"/>
<path d="M41.3732 44.8341C41.3732 45.5331 41.2091 46.0675 40.8606 46.4581C40.5121 46.8487 40.02 47.0337 39.3845 47.0337C38.7489 47.0337 38.2363 46.8487 37.9083 46.4581C37.5598 46.0675 37.3958 45.5331 37.3958 44.8136C37.3958 44.0941 37.5598 43.5596 37.9083 43.1896C38.2568 42.8196 38.7489 42.614 39.405 42.614C40.0405 42.614 40.5326 42.799 40.8811 43.1896C41.1886 43.6007 41.3732 44.1352 41.3732 44.8341ZM38.1133 44.8341C38.1133 45.3686 38.2158 45.7592 38.4414 46.0264C38.6669 46.2937 38.9744 46.4376 39.3845 46.4376C39.7945 46.4376 40.102 46.2937 40.3276 46.0264C40.5326 45.7592 40.6351 45.3481 40.6351 44.8136C40.6351 44.2791 40.5326 43.8885 40.3276 43.6213C40.1225 43.354 39.815 43.2102 39.3845 43.2102C38.9744 43.2102 38.6464 43.354 38.4414 43.6213C38.2158 43.9296 38.1133 44.3202 38.1133 44.8341Z" fill="#1C4096"/>
<path d="M47.8108 46.9927H46.9497L44.8585 43.5802H44.838L44.8585 43.7652C44.879 44.1353 44.8995 44.4642 44.8995 44.752V46.9721H44.2639V42.6963H45.1045L47.1957 46.0882H47.2162C47.2162 46.047 47.1957 45.8826 47.1957 45.5948C47.1752 45.307 47.1752 45.1014 47.1752 44.937V42.6963H47.8108V46.9927Z" fill="#1C4096"/>
<path d="M58.2054 44.8341C58.2054 45.3481 58.1029 45.8003 57.9184 46.1498C57.7134 46.4992 57.4264 46.7459 57.0573 46.8898L58.0824 47.9999H57.1393L56.3397 47.0337H56.2167C55.5812 47.0337 55.0686 46.8487 54.7406 46.4581C54.4125 46.0675 54.228 45.5331 54.228 44.8136C54.228 44.0941 54.392 43.5596 54.7406 43.1896C55.0891 42.8196 55.5812 42.614 56.2372 42.614C56.8728 42.614 57.3648 42.799 57.7134 43.1896C58.0209 43.6007 58.2054 44.1352 58.2054 44.8341ZM54.9456 44.8341C54.9456 45.3686 55.0481 45.7592 55.2736 46.0264C55.4992 46.2937 55.8067 46.4376 56.2167 46.4376C56.6268 46.4376 56.9343 46.2937 57.1598 46.0264C57.3648 45.7592 57.4674 45.3481 57.4674 44.8136C57.4674 44.2791 57.3648 43.8885 57.1598 43.6213C56.9548 43.354 56.6473 43.2102 56.2167 43.2102C55.8067 43.2102 55.4787 43.354 55.2736 43.6213C55.0481 43.9296 54.9456 44.3202 54.9456 44.8341Z" fill="#1C4096"/>
<path d="M64.438 42.7168V45.492C64.438 45.8003 64.3765 46.0881 64.233 46.3142C64.0895 46.5404 63.905 46.7254 63.6384 46.8692C63.3924 46.9926 63.0849 47.0543 62.7158 47.0543C62.1828 47.0543 61.7727 46.9104 61.4857 46.6226C61.1987 46.3348 61.0347 45.9648 61.0347 45.4714V42.7168H61.7317V45.4303C61.7317 45.7797 61.8137 46.047 61.9778 46.2114C62.1418 46.3759 62.3878 46.4581 62.7363 46.4581C63.3924 46.4581 63.7204 46.1087 63.7204 45.4097V42.7168H64.438Z" fill="#1C4096"/>
<path d="M71.2653 44.8341C71.2653 45.5331 71.1012 46.0675 70.7527 46.4581C70.4042 46.8487 69.9121 47.0337 69.2765 47.0337C68.641 47.0337 68.1284 46.8487 67.8004 46.4581C67.4724 46.0675 67.2878 45.5331 67.2878 44.8136C67.2878 44.0941 67.4519 43.5596 67.8004 43.1896C68.1489 42.8196 68.641 42.614 69.2971 42.614C69.9326 42.614 70.4247 42.799 70.7732 43.1896C71.1012 43.6007 71.2653 44.1352 71.2653 44.8341ZM68.0054 44.8341C68.0054 45.3686 68.1079 45.7592 68.3334 46.0264C68.559 46.2937 68.8665 46.4376 69.2765 46.4376C69.6866 46.4376 69.9941 46.2937 70.2196 46.0264C70.4247 45.7592 70.5272 45.3481 70.5272 44.8136C70.5272 44.2791 70.4247 43.8885 70.2196 43.6213C70.0146 43.354 69.7071 43.2102 69.2765 43.2102C68.8665 43.2102 68.5385 43.354 68.3334 43.6213C68.1284 43.9296 68.0054 44.3202 68.0054 44.8341Z" fill="#1C4096"/>
<path d="M75.6323 46.9926H74.9352V43.3129H73.6846V42.7168H76.9034V43.3129H75.6323V46.9926Z" fill="#1C4096"/>
<path d="M79.5071 46.9926V42.7168H80.2042V46.9926H79.5071Z" fill="#1C4096"/>
<path d="M85.6988 46.9926H83.2795V42.7168H85.6988V43.3129H83.9766V44.4847H85.5758V45.0603H83.9766V46.3964H85.6988V46.9926Z" fill="#1C4096"/>
<path d="M92.1365 46.9927H91.2754L89.1842 43.5802H89.1637L89.1842 43.7652C89.2047 44.1353 89.2252 44.4642 89.2252 44.752V46.9721H88.5896V42.6963H89.4302L91.5214 46.0882H91.5419C91.5419 46.047 91.5214 45.8826 91.5214 45.5948C91.5009 45.307 91.5009 45.1014 91.5009 44.937V42.6963H92.1365V46.9927Z" fill="#1C4096"/>
<path d="M96.7084 46.9926H96.0114V43.3129H94.7607V42.7168H97.9796V43.3129H96.7289V46.9926H96.7084Z" fill="#1C4096"/>
<path d="M10.4151 14.6775C12.1782 14.6775 13.5929 14.6158 14.659 14.5131C15.7251 14.4103 16.5657 14.1842 17.1603 13.8347C17.7548 13.4852 18.1649 12.9919 18.4109 12.334C18.6569 11.6762 18.8414 10.7717 18.9849 9.64111H20.5021V21.7696H18.9849C18.8209 20.6595 18.5954 19.7756 18.3289 19.1178C18.0623 18.4599 17.6113 17.946 17.0167 17.6171C16.4017 17.2677 15.6021 17.0621 14.5565 16.9593C13.5314 16.8565 12.1372 16.8154 10.4151 16.8154V25.3465C10.4151 26.2304 10.5381 26.9704 10.7636 27.5871C10.9891 28.2038 11.3992 28.6767 11.9322 29.0467C12.4858 29.4167 13.2034 29.6839 14.1259 29.8278C15.028 29.9717 16.1557 30.054 17.4678 30.054C19.0259 30.054 20.3586 29.9512 21.4452 29.725C22.5318 29.4989 23.4339 29.1083 24.1515 28.5739C24.869 28.0188 25.4431 27.2788 25.8941 26.3537C26.3247 25.4287 26.7142 24.257 27.0013 22.8591H28.6619L28.0059 32.3358H0.0205078V30.6912C0.9226 30.6707 1.68118 30.5884 2.25524 30.4445C2.82929 30.3006 3.28034 30.0745 3.56737 29.7456C3.8749 29.4167 4.07992 28.9439 4.18243 28.3477C4.28494 27.731 4.34645 26.9499 4.34645 25.9837V6.86595C4.34645 5.89978 4.30544 5.11863 4.20293 4.52248C4.10042 3.92634 3.91591 3.45353 3.64938 3.12462C3.38285 2.77515 2.97281 2.54903 2.48076 2.42569C1.96821 2.30235 1.31214 2.22013 0.471554 2.15846V0.513916H26.5502L26.8372 8.61327H25.0536C24.8895 7.46209 24.623 6.49593 24.2745 5.73533C23.9259 4.97473 23.4134 4.37858 22.7983 3.90578C22.1628 3.45353 21.3427 3.12462 20.3381 2.96017C19.3335 2.77516 18.1034 2.69293 16.6477 2.69293H11.9732C11.2557 2.69293 10.8251 2.77516 10.6611 2.96017C10.4971 3.14518 10.4151 3.55631 10.4151 4.21413V14.6775Z" fill="#1C4096"/>
<path d="M47.3187 15.5819C47.8927 14.8419 48.2823 14.3074 48.4668 14.0196C48.6513 13.7112 48.7538 13.4235 48.7538 13.1151C48.7538 12.7245 48.5898 12.4573 48.2823 12.2928C47.9747 12.1284 47.4417 12.0462 46.7036 12.0462V10.4016H56.1961V12.0462C55.663 12.0667 55.212 12.1284 54.8019 12.2106C54.3919 12.2928 53.9819 12.4573 53.5718 12.6834C53.1618 12.9095 52.7312 13.2384 52.3007 13.6496C51.8701 14.0607 51.3576 14.5952 50.7835 15.253L46.5806 20.1249L53.1003 28.5327C53.7358 29.3549 54.3509 29.91 54.966 30.2183C55.5605 30.5061 56.3191 30.65 57.2417 30.65V32.2945H44.1203V30.65C44.9199 30.65 45.4735 30.5883 45.8015 30.4444C46.109 30.3005 46.2731 30.0539 46.2731 29.6633C46.2731 29.3549 46.1706 29.026 45.986 28.6971C45.8015 28.3476 45.5145 27.8954 45.125 27.3609L42.7262 24.0513L40.9015 26.2509C40.43 26.8264 40.0609 27.2992 39.7944 27.6487C39.5279 27.9982 39.3229 28.3065 39.1793 28.5121C39.0358 28.7382 38.9538 28.9027 38.9128 29.026C38.8718 29.1494 38.8513 29.2727 38.8513 29.3755C38.8513 29.8483 39.0563 30.1772 39.4459 30.3622C39.8354 30.5472 40.4915 30.65 41.3731 30.65V32.2945H30.9375V30.65C31.8191 30.65 32.6802 30.5267 33.5003 30.2594C34.3203 29.9922 34.9764 29.5811 35.448 29.0466L41.1885 22.304L34.2998 13.5262C33.7668 12.8684 33.3157 12.4573 32.9262 12.2928C32.5367 12.1284 31.9831 12.0462 31.3065 12.0462V10.4016H43.8538V12.0462C42.4597 12.0462 41.7421 12.4367 41.7421 13.1973C41.7421 13.4646 41.8856 13.8346 42.1931 14.2663L45.125 18.3982L47.3187 15.5819Z" fill="#1C4096"/>
<path d="M75.0582 33.4047C72.8644 33.2197 70.8142 32.6441 68.9075 31.6985C67.0008 30.7529 65.3607 29.54 63.987 28.0599C62.5929 26.5799 61.5063 24.8531 60.7067 22.9002C59.9071 20.9473 59.5176 18.8711 59.5176 16.6715C59.5176 14.3281 59.9686 12.1285 60.8502 10.0934C61.7523 8.05824 62.9824 6.29036 64.5406 4.78972C66.0987 3.28908 67.9644 2.1379 70.1172 1.27451C72.2699 0.411131 74.5661 0 77.0469 0C79.5481 0 81.8854 0.431688 84.0586 1.27451C86.2318 2.1379 88.118 3.30963 89.7377 4.81028C91.3368 6.31092 92.608 8.0788 93.5305 10.1139C94.4531 12.149 94.9042 14.3075 94.9042 16.6304C94.9042 19.4672 94.2071 22.0779 92.813 24.4625C91.4188 26.8471 89.4711 28.8617 86.9699 30.4857C86.4983 30.794 86.0473 31.0612 85.6372 31.2874C85.2067 31.5135 84.7147 31.7602 84.1816 32.0068C83.628 32.2535 82.9925 32.5002 82.2544 32.788C80.0197 33.7131 76.2268 33.6308 75.0582 33.4047ZM77.0264 31.0612C78.646 31.0612 80.1222 30.7323 81.4343 30.054C82.7464 29.3756 83.8741 28.43 84.7967 27.176C85.7193 25.9426 86.4368 24.442 86.9494 22.6741C87.4619 20.9062 87.708 18.9533 87.708 16.7949C87.708 14.6364 87.4619 12.7041 86.9494 10.9567C86.4368 9.20942 85.7193 7.74989 84.7967 6.53704C83.8741 5.32419 82.7464 4.37859 81.4343 3.72077C80.1222 3.06296 78.646 2.73404 77.0264 2.73404C75.4067 2.73404 73.9511 3.06295 72.6799 3.70021C71.4088 4.35803 70.3222 5.28308 69.4406 6.49593C68.559 7.70878 67.8824 9.18886 67.3904 10.9156C66.9188 12.663 66.6728 14.6158 66.6728 16.7949C66.6728 18.9944 66.9188 20.9884 67.3904 22.7563C67.8619 24.5242 68.559 26.0248 69.4611 27.2377C70.3632 28.4711 71.4498 29.4167 72.7209 30.0745C73.9921 30.7323 75.4477 31.0612 77.0264 31.0612Z" fill="#E9C000"/>
<path d="M87.2363 25.9221L94.3095 34.9876C94.8836 35.7277 95.4372 36.221 95.9702 36.4883C96.5033 36.7555 97.1798 36.8789 97.9999 36.8789V38.3589H86.2727V36.8789C86.9903 36.8789 87.4823 36.8172 87.7694 36.6938C88.0564 36.5705 88.1999 36.3444 88.1999 35.9949C88.1999 35.7277 88.1179 35.4399 87.9334 35.1315C87.7694 34.8232 87.5028 34.4326 87.1543 33.9392L83.6895 29.4373" fill="#E9C000"/>
</svg>
