<svg width="16" height="16" viewBox="0 0 16 16" fill="none" xmlns="http://www.w3.org/2000/svg">
<path d="M6.39998 6.92913C6.39998 6.04718 7.1166 5.33053 7.99998 5.33053C8.88336 5.33053 9.59998 6.04718 9.59998 6.92913C9.59998 7.81109 8.88335 8.52777 7.99998 8.52777C7.11662 8.52777 6.39998 7.81109 6.39998 6.92913Z" fill="#131313"/>
<path fill-rule="evenodd" clip-rule="evenodd" d="M1.06665 6.92913C1.06665 3.10269 4.1719 0 7.99998 0C11.8281 0 14.9333 3.10269 14.9333 6.92913C14.9333 9.78144 13.5058 12.0411 11.977 13.569C11.2108 14.3346 10.4082 14.9283 9.72078 15.3334C9.37724 15.5359 9.05616 15.695 8.77704 15.8052C8.51352 15.9092 8.2369 15.9903 7.99998 15.9903C7.76307 15.9903 7.48645 15.9092 7.22293 15.8052C6.9438 15.695 6.62273 15.5359 6.27919 15.3334C5.59174 14.9283 4.78914 14.3346 4.02298 13.569C2.49416 12.0411 1.06665 9.78144 1.06665 6.92913ZM7.99998 4.26387C6.52816 4.26387 5.33332 5.45742 5.33332 6.92913C5.33332 8.40084 6.52815 9.59443 7.99998 9.59443C9.47182 9.59443 10.6667 8.40084 10.6667 6.92913C10.6667 5.45742 9.47181 4.26387 7.99998 4.26387Z" fill="#131313"/>
</svg>
