<svg width="30" height="30" viewBox="0 0 30 30" fill="none" xmlns="http://www.w3.org/2000/svg">
<path d="M15 30C23.2843 30 30 23.2843 30 15C30 6.71573 23.2843 0 15 0C6.71573 0 0 6.71573 0 15C0 23.2843 6.71573 30 15 30Z" fill="#1C4096"/>
<path d="M24.1877 10.7804C23.5449 11.0655 22.8534 11.2583 22.1283 11.3444C22.8687 10.9008 23.4369 10.1989 23.7051 9.36116C23.0122 9.77213 22.2446 10.0703 21.4282 10.231C20.7742 9.53443 19.8424 9.09912 18.8105 9.09912C16.8307 9.09912 15.2251 10.7048 15.2251 12.6845C15.2251 12.9655 15.2569 13.2391 15.3184 13.5016C12.3386 13.3522 9.69654 11.9249 7.92802 9.75502C7.61946 10.2844 7.44244 10.9008 7.44244 11.5577C7.44244 12.8013 8.07589 13.8992 9.03742 14.542C8.44997 14.5236 7.89674 14.3623 7.41357 14.0931C7.4133 14.1083 7.4133 14.1236 7.4133 14.1385C7.4133 15.8758 8.64971 17.3247 10.2896 17.6539C9.98906 17.7362 9.67167 17.7798 9.34519 17.7798C9.11363 17.7798 8.88929 17.7576 8.67056 17.7159C9.12673 19.14 10.4506 20.1767 12.0199 20.2058C10.7926 21.1676 9.24679 21.7406 7.56651 21.7406C7.27773 21.7406 6.99163 21.7238 6.71167 21.6903C8.29756 22.708 10.1826 23.3013 12.2073 23.3013C18.8022 23.3013 22.4088 17.8381 22.4088 13.0998C22.4088 12.9444 22.4053 12.7896 22.3983 12.6361C23.0994 12.1307 23.7072 11.4994 24.1877 10.7804Z" fill="white"/>
</svg>
